<mxfile host="app.diagrams.net" agent="Mozilla/5.0 (Windows NT 10.0; Win64; x64) AppleWebKit/537.36 (KHTML, like Gecko) Chrome/130.0.0.0 Safari/537.36" version="24.8.3">
  <diagram name="Page-1" id="FNmSrduUZ5u_OLCGWbWd">
    <mxGraphModel dx="2468" dy="1386" grid="0" gridSize="10" guides="1" tooltips="1" connect="1" arrows="1" fold="1" page="0" pageScale="1" pageWidth="850" pageHeight="1100" math="0" shadow="0">
      <root>
        <mxCell id="0" />
        <mxCell id="1" parent="0" />
        <mxCell id="ILpzqOGEgMHz32oO7xNn-144" value="" style="rounded=0;whiteSpace=wrap;html=1;textShadow=0;strokeColor=#005700;dashed=1;fillColor=#F5F5F5;" parent="1" vertex="1">
          <mxGeometry x="-251" y="230" width="247" height="329" as="geometry" />
        </mxCell>
        <mxCell id="ILpzqOGEgMHz32oO7xNn-142" value="" style="rounded=0;whiteSpace=wrap;html=1;textShadow=0;strokeColor=#F20037;dashed=1;fillColor=#F5F5F5;fontColor=#ffffff;" parent="1" vertex="1">
          <mxGeometry x="75" y="-76" width="909" height="827" as="geometry" />
        </mxCell>
        <mxCell id="ILpzqOGEgMHz32oO7xNn-136" value="" style="rounded=0;whiteSpace=wrap;html=1;textShadow=0;strokeColor=default;dashed=1;fillColor=#F7E3EE;" parent="1" vertex="1">
          <mxGeometry x="517.5" y="179.5" width="291.5" height="118.5" as="geometry" />
        </mxCell>
        <mxCell id="ILpzqOGEgMHz32oO7xNn-135" value="" style="rounded=0;whiteSpace=wrap;html=1;textShadow=0;strokeColor=default;dashed=1;fillColor=#D8F0FA;" parent="1" vertex="1">
          <mxGeometry x="194" y="180" width="292" height="118" as="geometry" />
        </mxCell>
        <mxCell id="ILpzqOGEgMHz32oO7xNn-134" value="" style="rounded=0;whiteSpace=wrap;html=1;textShadow=0;dashed=1;fillColor=#f7e3ee;" parent="1" vertex="1">
          <mxGeometry x="196" y="23" width="294" height="120" as="geometry" />
        </mxCell>
        <mxCell id="hqVNRMzppCiJ99_KFiAW-224" style="edgeStyle=orthogonalEdgeStyle;rounded=0;orthogonalLoop=1;jettySize=auto;html=1;entryX=0;entryY=0.5;entryDx=0;entryDy=0;" edge="1" parent="1" source="ILpzqOGEgMHz32oO7xNn-1" target="hqVNRMzppCiJ99_KFiAW-222">
          <mxGeometry relative="1" as="geometry" />
        </mxCell>
        <mxCell id="ILpzqOGEgMHz32oO7xNn-1" value="Users" style="outlineConnect=0;fontColor=#232F3E;gradientColor=none;strokeColor=#232F3E;fillColor=#ffffff;dashed=0;verticalLabelPosition=bottom;verticalAlign=top;align=center;html=1;fontSize=12;fontStyle=0;aspect=fixed;shape=mxgraph.aws4.resourceIcon;resIcon=mxgraph.aws4.users;rounded=0;" parent="1" vertex="1">
          <mxGeometry x="-362" y="415.5" width="60" height="60" as="geometry" />
        </mxCell>
        <mxCell id="hqVNRMzppCiJ99_KFiAW-228" style="edgeStyle=orthogonalEdgeStyle;rounded=0;orthogonalLoop=1;jettySize=auto;html=1;entryX=0.5;entryY=0;entryDx=0;entryDy=0;" edge="1" parent="1" source="ILpzqOGEgMHz32oO7xNn-2" target="hqVNRMzppCiJ99_KFiAW-222">
          <mxGeometry relative="1" as="geometry" />
        </mxCell>
        <mxCell id="ILpzqOGEgMHz32oO7xNn-2" value="" style="verticalLabelPosition=bottom;html=1;verticalAlign=top;align=center;strokeColor=none;fillColor=#00BEF2;shape=mxgraph.azure.website_generic;pointerEvents=1;rounded=0;" parent="1" vertex="1">
          <mxGeometry x="-159.5" y="254" width="67" height="70.5" as="geometry" />
        </mxCell>
        <mxCell id="ILpzqOGEgMHz32oO7xNn-6" value="" style="rounded=0;whiteSpace=wrap;html=1;direction=west;fillColor=#f8cecc;strokeColor=#b85450;" parent="1" vertex="1">
          <mxGeometry x="-84" y="352" width="42" height="172" as="geometry" />
        </mxCell>
        <mxCell id="ILpzqOGEgMHz32oO7xNn-7" value="" style="rounded=0;whiteSpace=wrap;html=1;direction=west;fillColor=#f8cecc;strokeColor=#b85450;" parent="1" vertex="1">
          <mxGeometry x="-77" y="359" width="45" height="172" as="geometry" />
        </mxCell>
        <mxCell id="hqVNRMzppCiJ99_KFiAW-213" style="edgeStyle=orthogonalEdgeStyle;rounded=0;orthogonalLoop=1;jettySize=auto;html=1;exitX=0;exitY=0.75;exitDx=0;exitDy=0;entryX=0;entryY=0.5;entryDx=0;entryDy=0;strokeColor=#005700;" edge="1" parent="1" source="ILpzqOGEgMHz32oO7xNn-8" target="ILpzqOGEgMHz32oO7xNn-12">
          <mxGeometry relative="1" as="geometry" />
        </mxCell>
        <mxCell id="ILpzqOGEgMHz32oO7xNn-8" value="&lt;font style=&quot;font-size: 11px;&quot;&gt;Load Balancer&lt;/font&gt;" style="rounded=0;whiteSpace=wrap;html=1;direction=west;fillColor=#f8cecc;strokeColor=#b85450;" parent="1" vertex="1">
          <mxGeometry x="-71" y="365" width="45" height="172" as="geometry" />
        </mxCell>
        <mxCell id="ILpzqOGEgMHz32oO7xNn-11" value="&lt;font style=&quot;font-size: 11px;&quot;&gt;CDN&lt;/font&gt;" style="text;html=1;align=center;verticalAlign=middle;resizable=0;points=[];autosize=1;strokeColor=none;fillColor=none;fontSize=16;rounded=0;" parent="1" vertex="1">
          <mxGeometry x="-100" y="261.5" width="42" height="31" as="geometry" />
        </mxCell>
        <mxCell id="ILpzqOGEgMHz32oO7xNn-12" value="" style="rounded=0;whiteSpace=wrap;html=1;fillColor=#dae8fc;strokeColor=#6c8ebf;" parent="1" vertex="1">
          <mxGeometry x="93" y="26" width="40" height="109" as="geometry" />
        </mxCell>
        <mxCell id="ILpzqOGEgMHz32oO7xNn-13" value="" style="rounded=0;whiteSpace=wrap;html=1;fillColor=#dae8fc;strokeColor=#6c8ebf;" parent="1" vertex="1">
          <mxGeometry x="99" y="31" width="40" height="109" as="geometry" />
        </mxCell>
        <mxCell id="hqVNRMzppCiJ99_KFiAW-133" style="edgeStyle=orthogonalEdgeStyle;rounded=0;orthogonalLoop=1;jettySize=auto;html=1;exitX=1;exitY=0.75;exitDx=0;exitDy=0;entryX=0;entryY=0.5;entryDx=0;entryDy=0;fillColor=#008a00;strokeColor=#005700;" edge="1" parent="1" source="ILpzqOGEgMHz32oO7xNn-14" target="hqVNRMzppCiJ99_KFiAW-97">
          <mxGeometry relative="1" as="geometry">
            <Array as="points">
              <mxPoint x="168" y="118" />
              <mxPoint x="168" y="159" />
              <mxPoint x="502" y="159" />
              <mxPoint x="502" y="83" />
            </Array>
          </mxGeometry>
        </mxCell>
        <mxCell id="hqVNRMzppCiJ99_KFiAW-136" style="edgeStyle=orthogonalEdgeStyle;rounded=0;orthogonalLoop=1;jettySize=auto;html=1;exitX=0.5;exitY=1;exitDx=0;exitDy=0;entryX=0;entryY=0.25;entryDx=0;entryDy=0;" edge="1" parent="1" source="ILpzqOGEgMHz32oO7xNn-14" target="ILpzqOGEgMHz32oO7xNn-135">
          <mxGeometry relative="1" as="geometry" />
        </mxCell>
        <mxCell id="ILpzqOGEgMHz32oO7xNn-14" value="&lt;font style=&quot;font-size: 9px;&quot;&gt;API Gateway&lt;/font&gt;" style="rounded=0;whiteSpace=wrap;html=1;fillColor=#dae8fc;strokeColor=#6c8ebf;" parent="1" vertex="1">
          <mxGeometry x="105" y="36" width="36" height="109" as="geometry" />
        </mxCell>
        <mxCell id="ILpzqOGEgMHz32oO7xNn-22" value="" style="rounded=0;whiteSpace=wrap;html=1;fillColor=#dae8fc;strokeColor=#6c8ebf;" parent="1" vertex="1">
          <mxGeometry x="94" y="314" width="40" height="256" as="geometry" />
        </mxCell>
        <mxCell id="ILpzqOGEgMHz32oO7xNn-23" value="" style="rounded=0;whiteSpace=wrap;html=1;fillColor=#dae8fc;strokeColor=#6c8ebf;" parent="1" vertex="1">
          <mxGeometry x="100" y="319" width="40" height="254" as="geometry" />
        </mxCell>
        <mxCell id="hqVNRMzppCiJ99_KFiAW-137" style="edgeStyle=orthogonalEdgeStyle;rounded=0;orthogonalLoop=1;jettySize=auto;html=1;exitX=0.25;exitY=0;exitDx=0;exitDy=0;entryX=0;entryY=0.75;entryDx=0;entryDy=0;fillColor=#008a00;strokeColor=#005700;" edge="1" parent="1" source="ILpzqOGEgMHz32oO7xNn-24" target="ILpzqOGEgMHz32oO7xNn-135">
          <mxGeometry relative="1" as="geometry" />
        </mxCell>
        <mxCell id="hqVNRMzppCiJ99_KFiAW-139" style="edgeStyle=orthogonalEdgeStyle;rounded=0;orthogonalLoop=1;jettySize=auto;html=1;exitX=0.75;exitY=0;exitDx=0;exitDy=0;entryX=0;entryY=0.5;entryDx=0;entryDy=0;fillColor=#008a00;strokeColor=#005700;" edge="1" parent="1" source="ILpzqOGEgMHz32oO7xNn-24" target="ILpzqOGEgMHz32oO7xNn-136">
          <mxGeometry relative="1" as="geometry">
            <Array as="points">
              <mxPoint x="136" y="308" />
              <mxPoint x="502" y="308" />
              <mxPoint x="502" y="239" />
            </Array>
          </mxGeometry>
        </mxCell>
        <mxCell id="hqVNRMzppCiJ99_KFiAW-140" style="edgeStyle=orthogonalEdgeStyle;rounded=0;orthogonalLoop=1;jettySize=auto;html=1;exitX=1;exitY=0.75;exitDx=0;exitDy=0;entryX=0;entryY=0.5;entryDx=0;entryDy=0;fillColor=#008a00;strokeColor=#005700;" edge="1" parent="1" source="ILpzqOGEgMHz32oO7xNn-24" target="hqVNRMzppCiJ99_KFiAW-50">
          <mxGeometry relative="1" as="geometry" />
        </mxCell>
        <mxCell id="hqVNRMzppCiJ99_KFiAW-141" style="edgeStyle=orthogonalEdgeStyle;rounded=0;orthogonalLoop=1;jettySize=auto;html=1;exitX=1;exitY=0.5;exitDx=0;exitDy=0;entryX=0;entryY=0.5;entryDx=0;entryDy=0;fillColor=#008a00;strokeColor=#005700;" edge="1" parent="1" source="ILpzqOGEgMHz32oO7xNn-24" target="hqVNRMzppCiJ99_KFiAW-30">
          <mxGeometry relative="1" as="geometry">
            <Array as="points">
              <mxPoint x="146" y="459" />
              <mxPoint x="502" y="459" />
              <mxPoint x="502" y="395" />
            </Array>
          </mxGeometry>
        </mxCell>
        <mxCell id="hqVNRMzppCiJ99_KFiAW-142" style="edgeStyle=orthogonalEdgeStyle;rounded=0;orthogonalLoop=1;jettySize=auto;html=1;exitX=0.25;exitY=1;exitDx=0;exitDy=0;entryX=0;entryY=0.5;entryDx=0;entryDy=0;fillColor=#008a00;strokeColor=#005700;" edge="1" parent="1" source="ILpzqOGEgMHz32oO7xNn-24" target="hqVNRMzppCiJ99_KFiAW-83">
          <mxGeometry relative="1" as="geometry">
            <Array as="points">
              <mxPoint x="111" y="578" />
              <mxPoint x="111" y="742" />
              <mxPoint x="500" y="742" />
              <mxPoint x="500" y="674" />
            </Array>
          </mxGeometry>
        </mxCell>
        <mxCell id="hqVNRMzppCiJ99_KFiAW-144" style="edgeStyle=orthogonalEdgeStyle;rounded=0;orthogonalLoop=1;jettySize=auto;html=1;exitX=0.75;exitY=1;exitDx=0;exitDy=0;entryX=0;entryY=0.5;entryDx=0;entryDy=0;fillColor=#008a00;strokeColor=#005700;" edge="1" parent="1" source="ILpzqOGEgMHz32oO7xNn-24" target="hqVNRMzppCiJ99_KFiAW-74">
          <mxGeometry relative="1" as="geometry" />
        </mxCell>
        <mxCell id="ILpzqOGEgMHz32oO7xNn-24" value="&lt;font style=&quot;font-size: 9px;&quot;&gt;API Gateway&lt;/font&gt;" style="rounded=0;whiteSpace=wrap;html=1;fillColor=#dae8fc;strokeColor=#6c8ebf;" parent="1" vertex="1">
          <mxGeometry x="106" y="324.5" width="40" height="253" as="geometry" />
        </mxCell>
        <mxCell id="ILpzqOGEgMHz32oO7xNn-27" value="" style="rounded=0;whiteSpace=wrap;html=1;fillColor=#f5f5f5;gradientColor=#b3b3b3;strokeColor=#666666;" parent="1" vertex="1">
          <mxGeometry x="280" y="51" width="95" height="53" as="geometry" />
        </mxCell>
        <mxCell id="ILpzqOGEgMHz32oO7xNn-28" value="Elastic&amp;nbsp;" style="shape=cylinder3;whiteSpace=wrap;html=1;boundedLbl=1;backgroundOutline=1;size=15;rounded=0;fillColor=#CCCCFF;fontColor=#ffffff;strokeColor=#000000;" parent="1" vertex="1">
          <mxGeometry x="412" y="42" width="51" height="72" as="geometry" />
        </mxCell>
        <mxCell id="hqVNRMzppCiJ99_KFiAW-108" style="edgeStyle=orthogonalEdgeStyle;rounded=0;orthogonalLoop=1;jettySize=auto;html=1;exitX=1;exitY=0.5;exitDx=0;exitDy=0;entryX=0.5;entryY=0;entryDx=0;entryDy=0;fillColor=#6a00ff;strokeColor=#3700CC;" edge="1" parent="1" source="ILpzqOGEgMHz32oO7xNn-42" target="ILpzqOGEgMHz32oO7xNn-134">
          <mxGeometry relative="1" as="geometry" />
        </mxCell>
        <mxCell id="ILpzqOGEgMHz32oO7xNn-42" value="Message&amp;nbsp;&lt;span style=&quot;background-color: initial;&quot;&gt;Broker&lt;/span&gt;" style="rounded=1;whiteSpace=wrap;html=1;direction=west;fillColor=#D5E8D4;fontColor=#000000;strokeColor=#2F332F;gradientColor=#444A44;gradientDirection=north;" parent="1" vertex="1">
          <mxGeometry x="398" y="-33" width="202" height="31" as="geometry" />
        </mxCell>
        <mxCell id="ILpzqOGEgMHz32oO7xNn-49" value="" style="rounded=0;whiteSpace=wrap;html=1;fillColor=#cdeb8b;strokeColor=#36393d;" parent="1" vertex="1">
          <mxGeometry x="598.5" y="208.5" width="95" height="53" as="geometry" />
        </mxCell>
        <mxCell id="ILpzqOGEgMHz32oO7xNn-50" value="" style="rounded=0;whiteSpace=wrap;html=1;fillColor=#f5f5f5;gradientColor=#b3b3b3;strokeColor=#666666;" parent="1" vertex="1">
          <mxGeometry x="285" y="56" width="95" height="53" as="geometry" />
        </mxCell>
        <mxCell id="O0o4bAYuVbN3omt0_8oD-17" value="" style="edgeStyle=orthogonalEdgeStyle;rounded=0;orthogonalLoop=1;jettySize=auto;html=1;dashed=1;dashPattern=1 1;" parent="1" source="ILpzqOGEgMHz32oO7xNn-51" target="ILpzqOGEgMHz32oO7xNn-123" edge="1">
          <mxGeometry relative="1" as="geometry" />
        </mxCell>
        <mxCell id="ILpzqOGEgMHz32oO7xNn-51" value="Search&lt;div&gt;Service&lt;/div&gt;" style="rounded=0;whiteSpace=wrap;html=1;fillColor=#f5f5f5;strokeColor=#666666;gradientColor=#b3b3b3;" parent="1" vertex="1">
          <mxGeometry x="290" y="61" width="95" height="53" as="geometry" />
        </mxCell>
        <mxCell id="ILpzqOGEgMHz32oO7xNn-55" value="" style="rounded=0;whiteSpace=wrap;html=1;fillColor=#cdeb8b;strokeColor=#36393d;" parent="1" vertex="1">
          <mxGeometry x="604.5" y="213.5" width="95" height="53" as="geometry" />
        </mxCell>
        <mxCell id="ILpzqOGEgMHz32oO7xNn-56" value="Inventory&lt;div&gt;Service&lt;/div&gt;" style="rounded=0;whiteSpace=wrap;html=1;fillColor=#cdeb8b;strokeColor=#36393d;gradientColor=none;" parent="1" vertex="1">
          <mxGeometry x="610.5" y="219.5" width="95" height="53" as="geometry" />
        </mxCell>
        <mxCell id="ILpzqOGEgMHz32oO7xNn-57" value="SQL&amp;nbsp;" style="shape=cylinder3;whiteSpace=wrap;html=1;boundedLbl=1;backgroundOutline=1;size=15;rounded=0;fillColor=#f5f5f5;strokeColor=#666666;gradientColor=#b3b3b3;" parent="1" vertex="1">
          <mxGeometry x="735.5" y="200" width="54.5" height="75" as="geometry" />
        </mxCell>
        <mxCell id="hqVNRMzppCiJ99_KFiAW-161" style="edgeStyle=orthogonalEdgeStyle;rounded=0;orthogonalLoop=1;jettySize=auto;html=1;exitX=0.75;exitY=1;exitDx=0;exitDy=0;entryX=1;entryY=0.5;entryDx=0;entryDy=0;fillColor=#e51400;strokeColor=#B20000;" edge="1" parent="1" source="ILpzqOGEgMHz32oO7xNn-94" target="hqVNRMzppCiJ99_KFiAW-30">
          <mxGeometry relative="1" as="geometry">
            <Array as="points">
              <mxPoint x="917" y="376" />
              <mxPoint x="825" y="376" />
              <mxPoint x="825" y="395" />
            </Array>
          </mxGeometry>
        </mxCell>
        <mxCell id="hqVNRMzppCiJ99_KFiAW-168" style="edgeStyle=orthogonalEdgeStyle;rounded=0;orthogonalLoop=1;jettySize=auto;html=1;exitX=1;exitY=0.5;exitDx=0;exitDy=0;entryX=0.5;entryY=0;entryDx=0;entryDy=0;fillColor=#e51400;strokeColor=#B20000;" edge="1" parent="1" source="ILpzqOGEgMHz32oO7xNn-94" target="ILpzqOGEgMHz32oO7xNn-209">
          <mxGeometry relative="1" as="geometry" />
        </mxCell>
        <mxCell id="ILpzqOGEgMHz32oO7xNn-94" value="&lt;font style=&quot;font-size: 9px;&quot;&gt;Event Broker&lt;/font&gt;" style="rounded=1;whiteSpace=wrap;html=1;direction=south;fillColor=#FFE7D7;fontColor=#000000;strokeColor=#2B2725;shadow=1;gradientColor=#5E5550;gradientDirection=east;" parent="1" vertex="1">
          <mxGeometry x="916.5" y="262" width="43" height="173" as="geometry" />
        </mxCell>
        <mxCell id="ILpzqOGEgMHz32oO7xNn-121" value="SQL&amp;nbsp;" style="shape=cylinder3;whiteSpace=wrap;html=1;boundedLbl=1;backgroundOutline=1;size=15;rounded=0;fillColor=#f5f5f5;strokeColor=#666666;gradientColor=#b3b3b3;" parent="1" vertex="1">
          <mxGeometry x="742.5" y="210" width="53.5" height="71" as="geometry" />
        </mxCell>
        <mxCell id="ILpzqOGEgMHz32oO7xNn-123" value="&lt;font color=&quot;#000000&quot;&gt;Elastic&amp;nbsp;&lt;/font&gt;" style="shape=cylinder3;whiteSpace=wrap;html=1;boundedLbl=1;backgroundOutline=1;size=15;rounded=0;fillColor=#CCCCFF;fontColor=#ffffff;strokeColor=#000000;" parent="1" vertex="1">
          <mxGeometry x="420" y="52" width="48" height="72" as="geometry" />
        </mxCell>
        <mxCell id="ILpzqOGEgMHz32oO7xNn-143" value="Private network" style="text;html=1;align=center;verticalAlign=middle;resizable=0;points=[];autosize=1;strokeColor=none;fillColor=none;fontSize=11;rounded=0;" parent="1" vertex="1">
          <mxGeometry x="87" y="-63" width="94" height="25" as="geometry" />
        </mxCell>
        <mxCell id="ILpzqOGEgMHz32oO7xNn-145" value="&lt;font style=&quot;font-size: 11px;&quot;&gt;Public network&lt;/font&gt;" style="text;html=1;align=center;verticalAlign=middle;resizable=0;points=[];autosize=1;strokeColor=none;fillColor=none;fontSize=16;rounded=0;" parent="1" vertex="1">
          <mxGeometry x="-250" y="229" width="90" height="31" as="geometry" />
        </mxCell>
        <mxCell id="ILpzqOGEgMHz32oO7xNn-146" style="edgeStyle=none;curved=0;rounded=0;orthogonalLoop=1;jettySize=auto;html=1;exitX=0;exitY=0.5;exitDx=0;exitDy=0;entryX=0;entryY=0.5;entryDx=0;entryDy=0;fontSize=12;startSize=8;endSize=8;fillColor=#008a00;strokeColor=#005700;" parent="1" edge="1">
          <mxGeometry relative="1" as="geometry">
            <mxPoint x="-145" y="622.75" as="sourcePoint" />
            <mxPoint x="-17" y="619.25" as="targetPoint" />
            <Array as="points" />
          </mxGeometry>
        </mxCell>
        <mxCell id="ILpzqOGEgMHz32oO7xNn-147" value="Synchronous - https/Rest" style="text;html=1;align=center;verticalAlign=middle;resizable=0;points=[];autosize=1;" parent="1" vertex="1">
          <mxGeometry x="-308" y="608" width="153" height="26" as="geometry" />
        </mxCell>
        <mxCell id="ILpzqOGEgMHz32oO7xNn-150" style="edgeStyle=none;curved=0;rounded=0;orthogonalLoop=1;jettySize=auto;html=1;entryX=1.006;entryY=0.378;entryDx=0;entryDy=0;entryPerimeter=0;fontSize=12;startSize=8;endSize=8;fillColor=#e51400;strokeColor=#B20000;" parent="1" edge="1">
          <mxGeometry relative="1" as="geometry">
            <mxPoint x="-136" y="677.5" as="sourcePoint" />
            <mxPoint x="-5" y="677.5" as="targetPoint" />
            <Array as="points" />
          </mxGeometry>
        </mxCell>
        <mxCell id="ILpzqOGEgMHz32oO7xNn-151" value="Asynchronous - Event driven" style="text;html=1;align=center;verticalAlign=middle;resizable=0;points=[];autosize=1;strokeColor=none;fillColor=none;" parent="1" vertex="1">
          <mxGeometry x="-323" y="665" width="171" height="26" as="geometry" />
        </mxCell>
        <mxCell id="ILpzqOGEgMHz32oO7xNn-157" value="" style="endArrow=classic;html=1;rounded=0;fillColor=#e3c800;strokeColor=#7D6A00;" parent="1" edge="1">
          <mxGeometry width="50" height="50" relative="1" as="geometry">
            <mxPoint x="-145" y="650.5" as="sourcePoint" />
            <mxPoint x="-19" y="647.5" as="targetPoint" />
          </mxGeometry>
        </mxCell>
        <mxCell id="ILpzqOGEgMHz32oO7xNn-158" value="Synchronous - grpc" style="text;html=1;align=center;verticalAlign=middle;resizable=0;points=[];autosize=1;strokeColor=none;fillColor=none;" parent="1" vertex="1">
          <mxGeometry x="-293" y="636" width="122" height="26" as="geometry" />
        </mxCell>
        <mxCell id="ILpzqOGEgMHz32oO7xNn-209" value="" style="rounded=0;whiteSpace=wrap;html=1;textShadow=0;strokeColor=default;dashed=1;fillColor=#F7E3EE;" parent="1" vertex="1">
          <mxGeometry x="833" y="504" width="134" height="204" as="geometry" />
        </mxCell>
        <mxCell id="hqVNRMzppCiJ99_KFiAW-169" style="edgeStyle=orthogonalEdgeStyle;rounded=0;orthogonalLoop=1;jettySize=auto;html=1;exitX=0.75;exitY=1;exitDx=0;exitDy=0;entryX=0.5;entryY=0;entryDx=0;entryDy=0;fillColor=#6a00ff;strokeColor=#3700CC;" edge="1" parent="1" source="ILpzqOGEgMHz32oO7xNn-214" target="hqVNRMzppCiJ99_KFiAW-115">
          <mxGeometry relative="1" as="geometry">
            <Array as="points">
              <mxPoint x="917" y="171" />
              <mxPoint x="435" y="171" />
            </Array>
          </mxGeometry>
        </mxCell>
        <mxCell id="ILpzqOGEgMHz32oO7xNn-214" value="&lt;font style=&quot;font-size: 9px;&quot;&gt;Message Broker&lt;/font&gt;" style="rounded=1;whiteSpace=wrap;html=1;direction=south;fillColor=#D5E8D4;fontColor=#000000;strokeColor=#2F332F;gradientColor=#444A44;gradientDirection=east;" parent="1" vertex="1">
          <mxGeometry x="878.5" y="30" width="41" height="175" as="geometry" />
        </mxCell>
        <mxCell id="ILpzqOGEgMHz32oO7xNn-230" value="" style="endArrow=classic;html=1;rounded=0;strokeColor=#3700CC;fillColor=#6a00ff;" parent="1" edge="1">
          <mxGeometry width="50" height="50" relative="1" as="geometry">
            <mxPoint x="-142" y="708" as="sourcePoint" />
            <mxPoint x="-7" y="708" as="targetPoint" />
          </mxGeometry>
        </mxCell>
        <mxCell id="ILpzqOGEgMHz32oO7xNn-231" value="Asynchronous - Message" style="text;html=1;align=center;verticalAlign=middle;resizable=0;points=[];autosize=1;strokeColor=none;fillColor=none;" parent="1" vertex="1">
          <mxGeometry x="-321" y="694" width="153" height="26" as="geometry" />
        </mxCell>
        <mxCell id="O0o4bAYuVbN3omt0_8oD-1" value="&lt;font style=&quot;font-size: 11px;&quot;&gt;LB&lt;/font&gt;" style="rounded=0;whiteSpace=wrap;html=1;direction=west;fillColor=#f8cecc;strokeColor=#b85450;" parent="1" vertex="1">
          <mxGeometry x="210" y="30" width="33" height="95" as="geometry" />
        </mxCell>
        <mxCell id="O0o4bAYuVbN3omt0_8oD-7" value="&lt;font style=&quot;font-size: 11px;&quot;&gt;LB&lt;/font&gt;" style="rounded=0;whiteSpace=wrap;html=1;direction=west;fillColor=#f8cecc;strokeColor=#b85450;" parent="1" vertex="1">
          <mxGeometry x="216" y="35" width="33" height="95" as="geometry" />
        </mxCell>
        <mxCell id="hqVNRMzppCiJ99_KFiAW-135" style="edgeStyle=orthogonalEdgeStyle;rounded=0;orthogonalLoop=1;jettySize=auto;html=1;exitX=0;exitY=0.5;exitDx=0;exitDy=0;entryX=0;entryY=0.5;entryDx=0;entryDy=0;dashed=1;dashPattern=1 1;" edge="1" parent="1" source="O0o4bAYuVbN3omt0_8oD-8" target="ILpzqOGEgMHz32oO7xNn-51">
          <mxGeometry relative="1" as="geometry" />
        </mxCell>
        <mxCell id="O0o4bAYuVbN3omt0_8oD-8" value="&lt;font style=&quot;font-size: 11px;&quot;&gt;LB&lt;/font&gt;" style="rounded=0;whiteSpace=wrap;html=1;direction=west;fillColor=#f8cecc;strokeColor=#b85450;" parent="1" vertex="1">
          <mxGeometry x="222" y="40" width="33" height="95" as="geometry" />
        </mxCell>
        <mxCell id="O0o4bAYuVbN3omt0_8oD-12" style="edgeStyle=orthogonalEdgeStyle;rounded=0;orthogonalLoop=1;jettySize=auto;html=1;exitX=1;exitY=0.5;exitDx=0;exitDy=0;entryX=0.879;entryY=0.414;entryDx=0;entryDy=0;entryPerimeter=0;fillColor=#008a00;strokeColor=#005700;" parent="1" source="ILpzqOGEgMHz32oO7xNn-14" target="O0o4bAYuVbN3omt0_8oD-7" edge="1">
          <mxGeometry relative="1" as="geometry" />
        </mxCell>
        <mxCell id="hqVNRMzppCiJ99_KFiAW-5" value="&lt;font style=&quot;font-size: 11px;&quot;&gt;LB&lt;/font&gt;" style="rounded=0;whiteSpace=wrap;html=1;direction=west;fillColor=#f8cecc;strokeColor=#b85450;" vertex="1" parent="1">
          <mxGeometry x="527" y="188.5" width="33" height="95" as="geometry" />
        </mxCell>
        <mxCell id="hqVNRMzppCiJ99_KFiAW-6" value="&lt;font style=&quot;font-size: 11px;&quot;&gt;LB&lt;/font&gt;" style="rounded=0;whiteSpace=wrap;html=1;direction=west;fillColor=#f8cecc;strokeColor=#b85450;" vertex="1" parent="1">
          <mxGeometry x="533" y="193.5" width="33" height="95" as="geometry" />
        </mxCell>
        <mxCell id="hqVNRMzppCiJ99_KFiAW-9" style="edgeStyle=orthogonalEdgeStyle;rounded=0;orthogonalLoop=1;jettySize=auto;html=1;exitX=0;exitY=0.5;exitDx=0;exitDy=0;entryX=0;entryY=0.5;entryDx=0;entryDy=0;dashed=1;dashPattern=1 1;" edge="1" parent="1" source="hqVNRMzppCiJ99_KFiAW-7" target="ILpzqOGEgMHz32oO7xNn-56">
          <mxGeometry relative="1" as="geometry" />
        </mxCell>
        <mxCell id="hqVNRMzppCiJ99_KFiAW-7" value="&lt;font style=&quot;font-size: 11px;&quot;&gt;LB&lt;/font&gt;" style="rounded=0;whiteSpace=wrap;html=1;direction=west;fillColor=#f8cecc;strokeColor=#b85450;" vertex="1" parent="1">
          <mxGeometry x="539" y="198.5" width="33" height="95" as="geometry" />
        </mxCell>
        <mxCell id="hqVNRMzppCiJ99_KFiAW-14" style="edgeStyle=orthogonalEdgeStyle;rounded=0;orthogonalLoop=1;jettySize=auto;html=1;exitX=1;exitY=0.5;exitDx=0;exitDy=0;entryX=0;entryY=0.5;entryDx=0;entryDy=0;entryPerimeter=0;dashed=1;dashPattern=1 1;" edge="1" parent="1" source="ILpzqOGEgMHz32oO7xNn-56" target="ILpzqOGEgMHz32oO7xNn-121">
          <mxGeometry relative="1" as="geometry" />
        </mxCell>
        <mxCell id="hqVNRMzppCiJ99_KFiAW-19" value="" style="rounded=0;whiteSpace=wrap;html=1;textShadow=0;strokeColor=default;dashed=1;fillColor=#F7E3EE;" vertex="1" parent="1">
          <mxGeometry x="193.5" y="335" width="292" height="118" as="geometry" />
        </mxCell>
        <mxCell id="hqVNRMzppCiJ99_KFiAW-20" value="" style="rounded=0;whiteSpace=wrap;html=1;fillColor=#d5e8d4;strokeColor=#82b366;gradientColor=#97d077;" vertex="1" parent="1">
          <mxGeometry x="279.5" y="342" width="95" height="53" as="geometry" />
        </mxCell>
        <mxCell id="hqVNRMzppCiJ99_KFiAW-21" value="NoSQL&amp;nbsp;" style="shape=cylinder3;whiteSpace=wrap;html=1;boundedLbl=1;backgroundOutline=1;size=15;rounded=0;fillColor=#FF99CC;strokeColor=#660033;gradientColor=#CC0066;gradientDirection=north;" vertex="1" parent="1">
          <mxGeometry x="412.5" y="355" width="56" height="72" as="geometry" />
        </mxCell>
        <mxCell id="hqVNRMzppCiJ99_KFiAW-22" value="" style="rounded=0;whiteSpace=wrap;html=1;fillColor=#d5e8d4;strokeColor=#82b366;gradientColor=#97d077;" vertex="1" parent="1">
          <mxGeometry x="284.5" y="367" width="95" height="53" as="geometry" />
        </mxCell>
        <mxCell id="hqVNRMzppCiJ99_KFiAW-23" value="Cart&lt;div&gt;&lt;span style=&quot;background-color: initial;&quot;&gt;Service&lt;/span&gt;&lt;/div&gt;" style="rounded=0;whiteSpace=wrap;html=1;fillColor=#d5e8d4;gradientColor=#97d077;strokeColor=#82b366;" vertex="1" parent="1">
          <mxGeometry x="290.5" y="373" width="95" height="53" as="geometry" />
        </mxCell>
        <mxCell id="hqVNRMzppCiJ99_KFiAW-24" value="&lt;font color=&quot;#000000&quot;&gt;KV&amp;nbsp;&lt;/font&gt;&lt;div&gt;&lt;font color=&quot;#000000&quot;&gt;Store&lt;/font&gt;&lt;/div&gt;" style="shape=cylinder3;whiteSpace=wrap;html=1;boundedLbl=1;backgroundOutline=1;size=15;rounded=0;fillColor=#FF99CC;strokeColor=#660033;fontColor=#000000;gradientDirection=north;gradientColor=#CC0066;" vertex="1" parent="1">
          <mxGeometry x="420.5" y="364" width="52" height="71" as="geometry" />
        </mxCell>
        <mxCell id="hqVNRMzppCiJ99_KFiAW-25" value="&lt;font style=&quot;font-size: 11px;&quot;&gt;LB&lt;/font&gt;" style="rounded=0;whiteSpace=wrap;html=1;direction=west;fillColor=#f8cecc;strokeColor=#b85450;" vertex="1" parent="1">
          <mxGeometry x="209.5" y="342.5" width="33" height="95" as="geometry" />
        </mxCell>
        <mxCell id="hqVNRMzppCiJ99_KFiAW-26" value="&lt;font style=&quot;font-size: 11px;&quot;&gt;LB&lt;/font&gt;" style="rounded=0;whiteSpace=wrap;html=1;direction=west;fillColor=#f8cecc;strokeColor=#b85450;" vertex="1" parent="1">
          <mxGeometry x="215.5" y="347.5" width="33" height="95" as="geometry" />
        </mxCell>
        <mxCell id="hqVNRMzppCiJ99_KFiAW-29" style="edgeStyle=orthogonalEdgeStyle;rounded=0;orthogonalLoop=1;jettySize=auto;html=1;exitX=0;exitY=0.5;exitDx=0;exitDy=0;entryX=0;entryY=0.5;entryDx=0;entryDy=0;dashed=1;dashPattern=1 1;" edge="1" parent="1" source="hqVNRMzppCiJ99_KFiAW-27" target="hqVNRMzppCiJ99_KFiAW-23">
          <mxGeometry relative="1" as="geometry" />
        </mxCell>
        <mxCell id="hqVNRMzppCiJ99_KFiAW-27" value="&lt;font style=&quot;font-size: 11px;&quot;&gt;LB&lt;/font&gt;" style="rounded=0;whiteSpace=wrap;html=1;direction=west;fillColor=#f8cecc;strokeColor=#b85450;" vertex="1" parent="1">
          <mxGeometry x="221.5" y="352.5" width="33" height="95" as="geometry" />
        </mxCell>
        <mxCell id="hqVNRMzppCiJ99_KFiAW-28" style="edgeStyle=orthogonalEdgeStyle;rounded=0;orthogonalLoop=1;jettySize=auto;html=1;exitX=1;exitY=0.5;exitDx=0;exitDy=0;entryX=0;entryY=0.5;entryDx=0;entryDy=0;entryPerimeter=0;dashed=1;dashPattern=1 1;" edge="1" parent="1" source="hqVNRMzppCiJ99_KFiAW-23" target="hqVNRMzppCiJ99_KFiAW-24">
          <mxGeometry relative="1" as="geometry" />
        </mxCell>
        <mxCell id="hqVNRMzppCiJ99_KFiAW-156" style="edgeStyle=orthogonalEdgeStyle;rounded=0;orthogonalLoop=1;jettySize=auto;html=1;exitX=1;exitY=0.25;exitDx=0;exitDy=0;entryX=0.5;entryY=1;entryDx=0;entryDy=0;fillColor=#e51400;strokeColor=#B20000;" edge="1" parent="1" source="hqVNRMzppCiJ99_KFiAW-30" target="ILpzqOGEgMHz32oO7xNn-94">
          <mxGeometry relative="1" as="geometry">
            <Array as="points">
              <mxPoint x="810" y="349" />
              <mxPoint x="863" y="349" />
            </Array>
          </mxGeometry>
        </mxCell>
        <mxCell id="hqVNRMzppCiJ99_KFiAW-208" style="edgeStyle=orthogonalEdgeStyle;rounded=0;orthogonalLoop=1;jettySize=auto;html=1;exitX=0.5;exitY=0;exitDx=0;exitDy=0;entryX=0.5;entryY=1;entryDx=0;entryDy=0;strokeColor=#7D6A00;fillColor=#e3c800;" edge="1" parent="1" source="hqVNRMzppCiJ99_KFiAW-30" target="ILpzqOGEgMHz32oO7xNn-136">
          <mxGeometry relative="1" as="geometry" />
        </mxCell>
        <mxCell id="hqVNRMzppCiJ99_KFiAW-210" style="edgeStyle=orthogonalEdgeStyle;rounded=0;orthogonalLoop=1;jettySize=auto;html=1;exitX=0.75;exitY=0;exitDx=0;exitDy=0;fillColor=#6a00ff;strokeColor=#3700CC;endArrow=none;endFill=0;" edge="1" parent="1" source="hqVNRMzppCiJ99_KFiAW-30">
          <mxGeometry relative="1" as="geometry">
            <mxPoint x="737" y="314.3333740234375" as="targetPoint" />
          </mxGeometry>
        </mxCell>
        <mxCell id="hqVNRMzppCiJ99_KFiAW-30" value="" style="rounded=0;whiteSpace=wrap;html=1;textShadow=0;strokeColor=default;dashed=1;fillColor=#F7E3EE;" vertex="1" parent="1">
          <mxGeometry x="517.5" y="335.5" width="292" height="118" as="geometry" />
        </mxCell>
        <mxCell id="hqVNRMzppCiJ99_KFiAW-31" value="" style="rounded=0;whiteSpace=wrap;html=1;fillColor=#b0e3e6;strokeColor=#0e8088;" vertex="1" parent="1">
          <mxGeometry x="603.5" y="361.5" width="95" height="53" as="geometry" />
        </mxCell>
        <mxCell id="hqVNRMzppCiJ99_KFiAW-32" value="NoSQL&amp;nbsp;" style="shape=cylinder3;whiteSpace=wrap;html=1;boundedLbl=1;backgroundOutline=1;size=15;rounded=0;fillColor=#f5f5f5;strokeColor=#666666;gradientColor=#b3b3b3;" vertex="1" parent="1">
          <mxGeometry x="736.5" y="356.5" width="56" height="72" as="geometry" />
        </mxCell>
        <mxCell id="hqVNRMzppCiJ99_KFiAW-33" value="" style="rounded=0;whiteSpace=wrap;html=1;fillColor=#b0e3e6;strokeColor=#0e8088;" vertex="1" parent="1">
          <mxGeometry x="608.5" y="368.5" width="95" height="53" as="geometry" />
        </mxCell>
        <mxCell id="hqVNRMzppCiJ99_KFiAW-34" value="Order&lt;div&gt;&lt;span style=&quot;background-color: initial;&quot;&gt;Service&lt;/span&gt;&lt;/div&gt;" style="rounded=0;whiteSpace=wrap;html=1;fillColor=#b0e3e6;strokeColor=#0e8088;" vertex="1" parent="1">
          <mxGeometry x="614.5" y="374.5" width="95" height="53" as="geometry" />
        </mxCell>
        <mxCell id="hqVNRMzppCiJ99_KFiAW-35" value="SQL" style="shape=cylinder3;whiteSpace=wrap;html=1;boundedLbl=1;backgroundOutline=1;size=15;rounded=0;fillColor=#f5f5f5;strokeColor=#666666;gradientColor=#b3b3b3;" vertex="1" parent="1">
          <mxGeometry x="744.5" y="365.5" width="52" height="71" as="geometry" />
        </mxCell>
        <mxCell id="hqVNRMzppCiJ99_KFiAW-36" value="&lt;font style=&quot;font-size: 11px;&quot;&gt;LB&lt;/font&gt;" style="rounded=0;whiteSpace=wrap;html=1;direction=west;fillColor=#f8cecc;strokeColor=#b85450;" vertex="1" parent="1">
          <mxGeometry x="533.5" y="344" width="33" height="95" as="geometry" />
        </mxCell>
        <mxCell id="hqVNRMzppCiJ99_KFiAW-37" value="&lt;font style=&quot;font-size: 11px;&quot;&gt;LB&lt;/font&gt;" style="rounded=0;whiteSpace=wrap;html=1;direction=west;fillColor=#f8cecc;strokeColor=#b85450;" vertex="1" parent="1">
          <mxGeometry x="539.5" y="349" width="33" height="95" as="geometry" />
        </mxCell>
        <mxCell id="hqVNRMzppCiJ99_KFiAW-39" style="edgeStyle=orthogonalEdgeStyle;rounded=0;orthogonalLoop=1;jettySize=auto;html=1;exitX=0;exitY=0.5;exitDx=0;exitDy=0;entryX=0;entryY=0.5;entryDx=0;entryDy=0;dashed=1;dashPattern=1 1;" edge="1" parent="1" source="hqVNRMzppCiJ99_KFiAW-38" target="hqVNRMzppCiJ99_KFiAW-34">
          <mxGeometry relative="1" as="geometry" />
        </mxCell>
        <mxCell id="hqVNRMzppCiJ99_KFiAW-38" value="&lt;font style=&quot;font-size: 11px;&quot;&gt;LB&lt;/font&gt;" style="rounded=0;whiteSpace=wrap;html=1;direction=west;fillColor=#f8cecc;strokeColor=#b85450;" vertex="1" parent="1">
          <mxGeometry x="545.5" y="354" width="33" height="95" as="geometry" />
        </mxCell>
        <mxCell id="hqVNRMzppCiJ99_KFiAW-40" style="edgeStyle=orthogonalEdgeStyle;rounded=0;orthogonalLoop=1;jettySize=auto;html=1;exitX=1;exitY=0.5;exitDx=0;exitDy=0;entryX=0;entryY=0.5;entryDx=0;entryDy=0;entryPerimeter=0;dashed=1;dashPattern=1 1;" edge="1" parent="1" source="hqVNRMzppCiJ99_KFiAW-34" target="hqVNRMzppCiJ99_KFiAW-35">
          <mxGeometry relative="1" as="geometry" />
        </mxCell>
        <mxCell id="hqVNRMzppCiJ99_KFiAW-50" value="" style="rounded=0;whiteSpace=wrap;html=1;textShadow=0;strokeColor=default;dashed=1;fillColor=#F7E3EE;" vertex="1" parent="1">
          <mxGeometry x="193.5" y="476" width="292" height="118" as="geometry" />
        </mxCell>
        <mxCell id="hqVNRMzppCiJ99_KFiAW-51" value="" style="rounded=0;whiteSpace=wrap;html=1;fillColor=#dae8fc;strokeColor=#6c8ebf;gradientColor=#7ea6e0;" vertex="1" parent="1">
          <mxGeometry x="279.5" y="500" width="95" height="53" as="geometry" />
        </mxCell>
        <mxCell id="hqVNRMzppCiJ99_KFiAW-52" value="NoSQL&amp;nbsp;" style="shape=cylinder3;whiteSpace=wrap;html=1;boundedLbl=1;backgroundOutline=1;size=15;rounded=0;fillColor=#f5f5f5;strokeColor=#666666;gradientColor=#b3b3b3;" vertex="1" parent="1">
          <mxGeometry x="412.5" y="495" width="56" height="72" as="geometry" />
        </mxCell>
        <mxCell id="hqVNRMzppCiJ99_KFiAW-53" value="" style="rounded=0;whiteSpace=wrap;html=1;fillColor=#dae8fc;strokeColor=#6c8ebf;gradientColor=#7ea6e0;" vertex="1" parent="1">
          <mxGeometry x="284.5" y="507" width="95" height="53" as="geometry" />
        </mxCell>
        <mxCell id="hqVNRMzppCiJ99_KFiAW-54" value="Discount&lt;div&gt;&lt;span style=&quot;background-color: initial;&quot;&gt;Service&lt;/span&gt;&lt;/div&gt;" style="rounded=0;whiteSpace=wrap;html=1;fillColor=#dae8fc;gradientColor=#7ea6e0;strokeColor=#6c8ebf;" vertex="1" parent="1">
          <mxGeometry x="290.5" y="513" width="95" height="53" as="geometry" />
        </mxCell>
        <mxCell id="hqVNRMzppCiJ99_KFiAW-55" value="SQL" style="shape=cylinder3;whiteSpace=wrap;html=1;boundedLbl=1;backgroundOutline=1;size=15;rounded=0;fillColor=#f5f5f5;strokeColor=#666666;gradientColor=#b3b3b3;" vertex="1" parent="1">
          <mxGeometry x="420.5" y="504" width="52" height="71" as="geometry" />
        </mxCell>
        <mxCell id="hqVNRMzppCiJ99_KFiAW-56" value="&lt;font style=&quot;font-size: 11px;&quot;&gt;LB&lt;/font&gt;" style="rounded=0;whiteSpace=wrap;html=1;direction=west;fillColor=#f8cecc;strokeColor=#b85450;" vertex="1" parent="1">
          <mxGeometry x="209.5" y="482.5" width="33" height="95" as="geometry" />
        </mxCell>
        <mxCell id="hqVNRMzppCiJ99_KFiAW-57" value="&lt;font style=&quot;font-size: 11px;&quot;&gt;LB&lt;/font&gt;" style="rounded=0;whiteSpace=wrap;html=1;direction=west;fillColor=#f8cecc;strokeColor=#b85450;" vertex="1" parent="1">
          <mxGeometry x="215.5" y="487.5" width="33" height="95" as="geometry" />
        </mxCell>
        <mxCell id="hqVNRMzppCiJ99_KFiAW-69" style="edgeStyle=orthogonalEdgeStyle;rounded=0;orthogonalLoop=1;jettySize=auto;html=1;exitX=0;exitY=0.5;exitDx=0;exitDy=0;dashed=1;dashPattern=1 1;" edge="1" parent="1" source="hqVNRMzppCiJ99_KFiAW-58" target="hqVNRMzppCiJ99_KFiAW-54">
          <mxGeometry relative="1" as="geometry" />
        </mxCell>
        <mxCell id="hqVNRMzppCiJ99_KFiAW-58" value="&lt;font style=&quot;font-size: 11px;&quot;&gt;LB&lt;/font&gt;" style="rounded=0;whiteSpace=wrap;html=1;direction=west;fillColor=#f8cecc;strokeColor=#b85450;" vertex="1" parent="1">
          <mxGeometry x="221.5" y="492.5" width="33" height="95" as="geometry" />
        </mxCell>
        <mxCell id="hqVNRMzppCiJ99_KFiAW-159" style="edgeStyle=orthogonalEdgeStyle;rounded=0;orthogonalLoop=1;jettySize=auto;html=1;exitX=0.75;exitY=0;exitDx=0;exitDy=0;entryX=0.75;entryY=1;entryDx=0;entryDy=0;fillColor=#e51400;strokeColor=#B20000;" edge="1" parent="1" source="hqVNRMzppCiJ99_KFiAW-59" target="ILpzqOGEgMHz32oO7xNn-94">
          <mxGeometry relative="1" as="geometry">
            <Array as="points">
              <mxPoint x="735" y="460" />
              <mxPoint x="835" y="460" />
              <mxPoint x="835" y="392" />
            </Array>
          </mxGeometry>
        </mxCell>
        <mxCell id="hqVNRMzppCiJ99_KFiAW-59" value="" style="rounded=0;whiteSpace=wrap;html=1;textShadow=0;strokeColor=default;dashed=1;fillColor=#F7E3EE;" vertex="1" parent="1">
          <mxGeometry x="516" y="477" width="292" height="118" as="geometry" />
        </mxCell>
        <mxCell id="hqVNRMzppCiJ99_KFiAW-60" value="" style="rounded=0;whiteSpace=wrap;html=1;fillColor=#e1d5e7;strokeColor=#9673a6;gradientColor=#756F78;" vertex="1" parent="1">
          <mxGeometry x="602" y="503" width="95" height="53" as="geometry" />
        </mxCell>
        <mxCell id="hqVNRMzppCiJ99_KFiAW-61" value="NoSQL&amp;nbsp;" style="shape=cylinder3;whiteSpace=wrap;html=1;boundedLbl=1;backgroundOutline=1;size=15;rounded=0;fillColor=#f5f5f5;strokeColor=#666666;gradientColor=#b3b3b3;" vertex="1" parent="1">
          <mxGeometry x="735" y="498" width="56" height="72" as="geometry" />
        </mxCell>
        <mxCell id="hqVNRMzppCiJ99_KFiAW-62" value="" style="rounded=0;whiteSpace=wrap;html=1;fillColor=#e1d5e7;strokeColor=#9673a6;gradientColor=#756F78;" vertex="1" parent="1">
          <mxGeometry x="607" y="510" width="95" height="53" as="geometry" />
        </mxCell>
        <mxCell id="hqVNRMzppCiJ99_KFiAW-63" value="Payment&lt;div&gt;&lt;span style=&quot;background-color: initial;&quot;&gt;Service&lt;/span&gt;&lt;/div&gt;" style="rounded=0;whiteSpace=wrap;html=1;fillColor=#e1d5e7;strokeColor=#9673a6;gradientColor=#756F78;" vertex="1" parent="1">
          <mxGeometry x="613" y="516" width="95" height="53" as="geometry" />
        </mxCell>
        <mxCell id="hqVNRMzppCiJ99_KFiAW-64" value="SQL" style="shape=cylinder3;whiteSpace=wrap;html=1;boundedLbl=1;backgroundOutline=1;size=15;rounded=0;fillColor=#f5f5f5;strokeColor=#666666;gradientColor=#b3b3b3;" vertex="1" parent="1">
          <mxGeometry x="743" y="507" width="52" height="71" as="geometry" />
        </mxCell>
        <mxCell id="hqVNRMzppCiJ99_KFiAW-65" value="&lt;font style=&quot;font-size: 11px;&quot;&gt;LB&lt;/font&gt;" style="rounded=0;whiteSpace=wrap;html=1;direction=west;fillColor=#f8cecc;strokeColor=#b85450;" vertex="1" parent="1">
          <mxGeometry x="532" y="485.5" width="33" height="95" as="geometry" />
        </mxCell>
        <mxCell id="hqVNRMzppCiJ99_KFiAW-66" value="&lt;font style=&quot;font-size: 11px;&quot;&gt;LB&lt;/font&gt;" style="rounded=0;whiteSpace=wrap;html=1;direction=west;fillColor=#f8cecc;strokeColor=#b85450;" vertex="1" parent="1">
          <mxGeometry x="538" y="490.5" width="33" height="95" as="geometry" />
        </mxCell>
        <mxCell id="hqVNRMzppCiJ99_KFiAW-72" style="edgeStyle=orthogonalEdgeStyle;rounded=0;orthogonalLoop=1;jettySize=auto;html=1;exitX=0;exitY=0.5;exitDx=0;exitDy=0;entryX=0;entryY=0.5;entryDx=0;entryDy=0;dashed=1;dashPattern=1 1;" edge="1" parent="1" source="hqVNRMzppCiJ99_KFiAW-67" target="hqVNRMzppCiJ99_KFiAW-63">
          <mxGeometry relative="1" as="geometry" />
        </mxCell>
        <mxCell id="hqVNRMzppCiJ99_KFiAW-67" value="&lt;font style=&quot;font-size: 11px;&quot;&gt;LB&lt;/font&gt;" style="rounded=0;whiteSpace=wrap;html=1;direction=west;fillColor=#f8cecc;strokeColor=#b85450;" vertex="1" parent="1">
          <mxGeometry x="544" y="495.5" width="33" height="95" as="geometry" />
        </mxCell>
        <mxCell id="hqVNRMzppCiJ99_KFiAW-70" style="edgeStyle=orthogonalEdgeStyle;rounded=0;orthogonalLoop=1;jettySize=auto;html=1;exitX=1;exitY=0.5;exitDx=0;exitDy=0;entryX=0;entryY=0.5;entryDx=0;entryDy=0;entryPerimeter=0;dashed=1;dashPattern=1 1;" edge="1" parent="1" source="hqVNRMzppCiJ99_KFiAW-54" target="hqVNRMzppCiJ99_KFiAW-55">
          <mxGeometry relative="1" as="geometry" />
        </mxCell>
        <mxCell id="hqVNRMzppCiJ99_KFiAW-73" style="edgeStyle=orthogonalEdgeStyle;rounded=0;orthogonalLoop=1;jettySize=auto;html=1;exitX=1;exitY=0.5;exitDx=0;exitDy=0;entryX=0;entryY=0.5;entryDx=0;entryDy=0;entryPerimeter=0;dashed=1;dashPattern=1 1;" edge="1" parent="1" source="hqVNRMzppCiJ99_KFiAW-63" target="hqVNRMzppCiJ99_KFiAW-64">
          <mxGeometry relative="1" as="geometry" />
        </mxCell>
        <mxCell id="hqVNRMzppCiJ99_KFiAW-193" style="edgeStyle=orthogonalEdgeStyle;rounded=0;orthogonalLoop=1;jettySize=auto;html=1;exitX=1;exitY=0.25;exitDx=0;exitDy=0;endArrow=none;endFill=0;fillColor=#6a00ff;strokeColor=#3700CC;" edge="1" parent="1" source="hqVNRMzppCiJ99_KFiAW-74">
          <mxGeometry relative="1" as="geometry">
            <mxPoint x="819" y="604" as="targetPoint" />
            <Array as="points">
              <mxPoint x="501" y="645" />
              <mxPoint x="501" y="620" />
              <mxPoint x="513" y="620" />
              <mxPoint x="513" y="606" />
              <mxPoint x="816" y="606" />
              <mxPoint x="816" y="604" />
            </Array>
          </mxGeometry>
        </mxCell>
        <mxCell id="hqVNRMzppCiJ99_KFiAW-74" value="" style="rounded=0;whiteSpace=wrap;html=1;textShadow=0;strokeColor=default;dashed=1;fillColor=#F7E3EE;" vertex="1" parent="1">
          <mxGeometry x="192.5" y="615" width="292" height="118" as="geometry" />
        </mxCell>
        <mxCell id="hqVNRMzppCiJ99_KFiAW-75" value="" style="rounded=0;whiteSpace=wrap;html=1;fillColor=#E6FFCC;strokeColor=#2D7600;gradientColor=#636363;" vertex="1" parent="1">
          <mxGeometry x="278.5" y="641" width="95" height="53" as="geometry" />
        </mxCell>
        <mxCell id="hqVNRMzppCiJ99_KFiAW-76" value="NoSQL&amp;nbsp;" style="shape=cylinder3;whiteSpace=wrap;html=1;boundedLbl=1;backgroundOutline=1;size=15;rounded=0;fillColor=#f5f5f5;strokeColor=#666666;gradientColor=#b3b3b3;" vertex="1" parent="1">
          <mxGeometry x="411.5" y="636" width="56" height="72" as="geometry" />
        </mxCell>
        <mxCell id="hqVNRMzppCiJ99_KFiAW-77" value="" style="rounded=0;whiteSpace=wrap;html=1;fillColor=#E6FFCC;strokeColor=#2D7600;fontColor=#ffffff;gradientColor=#636363;" vertex="1" parent="1">
          <mxGeometry x="283.5" y="648" width="95" height="53" as="geometry" />
        </mxCell>
        <mxCell id="hqVNRMzppCiJ99_KFiAW-78" value="User&lt;div&gt;&lt;span style=&quot;background-color: initial;&quot;&gt;Service&lt;/span&gt;&lt;/div&gt;" style="rounded=0;whiteSpace=wrap;html=1;fillColor=#E6FFCC;strokeColor=#2D7600;fontColor=#000000;gradientColor=#636363;" vertex="1" parent="1">
          <mxGeometry x="289.5" y="654" width="95" height="53" as="geometry" />
        </mxCell>
        <mxCell id="hqVNRMzppCiJ99_KFiAW-79" value="SQL" style="shape=cylinder3;whiteSpace=wrap;html=1;boundedLbl=1;backgroundOutline=1;size=15;rounded=0;fillColor=#f5f5f5;strokeColor=#666666;gradientColor=#b3b3b3;" vertex="1" parent="1">
          <mxGeometry x="419.5" y="645" width="52" height="71" as="geometry" />
        </mxCell>
        <mxCell id="hqVNRMzppCiJ99_KFiAW-80" value="&lt;font style=&quot;font-size: 11px;&quot;&gt;LB&lt;/font&gt;" style="rounded=0;whiteSpace=wrap;html=1;direction=west;fillColor=#f8cecc;strokeColor=#b85450;" vertex="1" parent="1">
          <mxGeometry x="208.5" y="623.5" width="33" height="95" as="geometry" />
        </mxCell>
        <mxCell id="hqVNRMzppCiJ99_KFiAW-81" value="&lt;font style=&quot;font-size: 11px;&quot;&gt;LB&lt;/font&gt;" style="rounded=0;whiteSpace=wrap;html=1;direction=west;fillColor=#f8cecc;strokeColor=#b85450;" vertex="1" parent="1">
          <mxGeometry x="214.5" y="628.5" width="33" height="95" as="geometry" />
        </mxCell>
        <mxCell id="hqVNRMzppCiJ99_KFiAW-96" style="edgeStyle=orthogonalEdgeStyle;rounded=0;orthogonalLoop=1;jettySize=auto;html=1;exitX=0;exitY=0.5;exitDx=0;exitDy=0;entryX=0;entryY=0.5;entryDx=0;entryDy=0;dashed=1;dashPattern=1 1;" edge="1" parent="1" source="hqVNRMzppCiJ99_KFiAW-82" target="hqVNRMzppCiJ99_KFiAW-78">
          <mxGeometry relative="1" as="geometry" />
        </mxCell>
        <mxCell id="hqVNRMzppCiJ99_KFiAW-82" value="&lt;font style=&quot;font-size: 11px;&quot;&gt;LB&lt;/font&gt;" style="rounded=0;whiteSpace=wrap;html=1;direction=west;fillColor=#f8cecc;strokeColor=#b85450;" vertex="1" parent="1">
          <mxGeometry x="220.5" y="633.5" width="33" height="95" as="geometry" />
        </mxCell>
        <mxCell id="hqVNRMzppCiJ99_KFiAW-203" style="edgeStyle=orthogonalEdgeStyle;rounded=0;orthogonalLoop=1;jettySize=auto;html=1;exitX=1;exitY=0.25;exitDx=0;exitDy=0;fillColor=#6a00ff;strokeColor=#3700CC;endArrow=none;endFill=0;" edge="1" parent="1" source="hqVNRMzppCiJ99_KFiAW-83">
          <mxGeometry relative="1" as="geometry">
            <mxPoint x="815.3333740234375" y="483" as="targetPoint" />
            <Array as="points">
              <mxPoint x="820" y="645" />
              <mxPoint x="820" y="483" />
            </Array>
          </mxGeometry>
        </mxCell>
        <mxCell id="hqVNRMzppCiJ99_KFiAW-83" value="" style="rounded=0;whiteSpace=wrap;html=1;textShadow=0;strokeColor=default;dashed=1;fillColor=#F7E3EE;" vertex="1" parent="1">
          <mxGeometry x="518" y="615" width="292" height="118" as="geometry" />
        </mxCell>
        <mxCell id="hqVNRMzppCiJ99_KFiAW-84" value="" style="rounded=0;whiteSpace=wrap;html=1;fillColor=#fad9d5;strokeColor=#ae4132;gradientColor=#EA6B66;" vertex="1" parent="1">
          <mxGeometry x="604" y="641" width="95" height="53" as="geometry" />
        </mxCell>
        <mxCell id="hqVNRMzppCiJ99_KFiAW-85" value="NoSQL&amp;nbsp;" style="shape=cylinder3;whiteSpace=wrap;html=1;boundedLbl=1;backgroundOutline=1;size=15;rounded=0;fillColor=#f5f5f5;strokeColor=#666666;gradientColor=#b3b3b3;" vertex="1" parent="1">
          <mxGeometry x="737" y="636" width="56" height="72" as="geometry" />
        </mxCell>
        <mxCell id="hqVNRMzppCiJ99_KFiAW-86" value="" style="rounded=0;whiteSpace=wrap;html=1;fillColor=#fad9d5;strokeColor=#ae4132;gradientColor=#EA6B66;" vertex="1" parent="1">
          <mxGeometry x="609" y="648" width="95" height="53" as="geometry" />
        </mxCell>
        <mxCell id="hqVNRMzppCiJ99_KFiAW-87" value="Shipping&lt;div&gt;&lt;span style=&quot;background-color: initial;&quot;&gt;Service&lt;/span&gt;&lt;/div&gt;" style="rounded=0;whiteSpace=wrap;html=1;fillColor=#fad9d5;strokeColor=#ae4132;gradientColor=#EA6B66;" vertex="1" parent="1">
          <mxGeometry x="615" y="654" width="95" height="53" as="geometry" />
        </mxCell>
        <mxCell id="hqVNRMzppCiJ99_KFiAW-88" value="SQL" style="shape=cylinder3;whiteSpace=wrap;html=1;boundedLbl=1;backgroundOutline=1;size=15;rounded=0;fillColor=#f5f5f5;strokeColor=#666666;gradientColor=#b3b3b3;" vertex="1" parent="1">
          <mxGeometry x="745" y="645" width="52" height="71" as="geometry" />
        </mxCell>
        <mxCell id="hqVNRMzppCiJ99_KFiAW-89" value="&lt;font style=&quot;font-size: 11px;&quot;&gt;LB&lt;/font&gt;" style="rounded=0;whiteSpace=wrap;html=1;direction=west;fillColor=#f8cecc;strokeColor=#b85450;" vertex="1" parent="1">
          <mxGeometry x="534" y="623.5" width="33" height="95" as="geometry" />
        </mxCell>
        <mxCell id="hqVNRMzppCiJ99_KFiAW-90" value="&lt;font style=&quot;font-size: 11px;&quot;&gt;LB&lt;/font&gt;" style="rounded=0;whiteSpace=wrap;html=1;direction=west;fillColor=#f8cecc;strokeColor=#b85450;" vertex="1" parent="1">
          <mxGeometry x="540" y="628.5" width="33" height="95" as="geometry" />
        </mxCell>
        <mxCell id="hqVNRMzppCiJ99_KFiAW-92" style="edgeStyle=orthogonalEdgeStyle;rounded=0;orthogonalLoop=1;jettySize=auto;html=1;exitX=0;exitY=0.5;exitDx=0;exitDy=0;entryX=0;entryY=0.5;entryDx=0;entryDy=0;dashed=1;dashPattern=1 1;" edge="1" parent="1" source="hqVNRMzppCiJ99_KFiAW-91" target="hqVNRMzppCiJ99_KFiAW-87">
          <mxGeometry relative="1" as="geometry" />
        </mxCell>
        <mxCell id="hqVNRMzppCiJ99_KFiAW-91" value="&lt;font style=&quot;font-size: 11px;&quot;&gt;LB&lt;/font&gt;" style="rounded=0;whiteSpace=wrap;html=1;direction=west;fillColor=#f8cecc;strokeColor=#b85450;" vertex="1" parent="1">
          <mxGeometry x="546" y="633.5" width="33" height="95" as="geometry" />
        </mxCell>
        <mxCell id="hqVNRMzppCiJ99_KFiAW-94" style="edgeStyle=orthogonalEdgeStyle;rounded=0;orthogonalLoop=1;jettySize=auto;html=1;exitX=1;exitY=0.5;exitDx=0;exitDy=0;entryX=0;entryY=0.5;entryDx=0;entryDy=0;entryPerimeter=0;dashed=1;dashPattern=1 1;" edge="1" parent="1" source="hqVNRMzppCiJ99_KFiAW-87" target="hqVNRMzppCiJ99_KFiAW-88">
          <mxGeometry relative="1" as="geometry" />
        </mxCell>
        <mxCell id="hqVNRMzppCiJ99_KFiAW-95" style="edgeStyle=orthogonalEdgeStyle;rounded=0;orthogonalLoop=1;jettySize=auto;html=1;exitX=1;exitY=0.5;exitDx=0;exitDy=0;entryX=0;entryY=0.5;entryDx=0;entryDy=0;entryPerimeter=0;dashed=1;dashPattern=1 1;" edge="1" parent="1" source="hqVNRMzppCiJ99_KFiAW-78" target="hqVNRMzppCiJ99_KFiAW-79">
          <mxGeometry relative="1" as="geometry" />
        </mxCell>
        <mxCell id="hqVNRMzppCiJ99_KFiAW-107" style="edgeStyle=orthogonalEdgeStyle;rounded=0;orthogonalLoop=1;jettySize=auto;html=1;exitX=0.5;exitY=0;exitDx=0;exitDy=0;entryX=0;entryY=0.5;entryDx=0;entryDy=0;fillColor=#0050ef;strokeColor=#001DBC;" edge="1" parent="1" source="hqVNRMzppCiJ99_KFiAW-97" target="ILpzqOGEgMHz32oO7xNn-42">
          <mxGeometry relative="1" as="geometry" />
        </mxCell>
        <mxCell id="hqVNRMzppCiJ99_KFiAW-97" value="" style="rounded=0;whiteSpace=wrap;html=1;textShadow=0;strokeColor=default;dashed=1;fillColor=#F7E3EE;" vertex="1" parent="1">
          <mxGeometry x="517.25" y="24" width="292" height="118" as="geometry" />
        </mxCell>
        <mxCell id="hqVNRMzppCiJ99_KFiAW-98" value="" style="rounded=0;whiteSpace=wrap;html=1;fillColor=#e6d0de;gradientColor=#d5739d;strokeColor=#996185;" vertex="1" parent="1">
          <mxGeometry x="603.25" y="50" width="95" height="53" as="geometry" />
        </mxCell>
        <mxCell id="hqVNRMzppCiJ99_KFiAW-99" value="NoSQL&amp;nbsp;" style="shape=cylinder3;whiteSpace=wrap;html=1;boundedLbl=1;backgroundOutline=1;size=15;rounded=0;fillColor=#fad7ac;strokeColor=#b46504;" vertex="1" parent="1">
          <mxGeometry x="736.25" y="45" width="56" height="72" as="geometry" />
        </mxCell>
        <mxCell id="hqVNRMzppCiJ99_KFiAW-100" value="" style="rounded=0;whiteSpace=wrap;html=1;fillColor=#e6d0de;gradientColor=#d5739d;strokeColor=#996185;" vertex="1" parent="1">
          <mxGeometry x="608.25" y="57" width="95" height="53" as="geometry" />
        </mxCell>
        <mxCell id="hqVNRMzppCiJ99_KFiAW-101" value="Product&lt;div&gt;&lt;span style=&quot;background-color: initial;&quot;&gt;Service&lt;/span&gt;&lt;/div&gt;" style="rounded=0;whiteSpace=wrap;html=1;fillColor=#e6d0de;gradientColor=#d5739d;strokeColor=#996185;" vertex="1" parent="1">
          <mxGeometry x="614.25" y="63" width="95" height="53" as="geometry" />
        </mxCell>
        <mxCell id="hqVNRMzppCiJ99_KFiAW-102" value="Document&lt;div&gt;NoSQL&amp;nbsp;&lt;/div&gt;" style="shape=cylinder3;whiteSpace=wrap;html=1;boundedLbl=1;backgroundOutline=1;size=15;rounded=0;fillColor=#fad7ac;strokeColor=#b46504;" vertex="1" parent="1">
          <mxGeometry x="744.25" y="54" width="57" height="71" as="geometry" />
        </mxCell>
        <mxCell id="hqVNRMzppCiJ99_KFiAW-103" value="&lt;font style=&quot;font-size: 11px;&quot;&gt;LB&lt;/font&gt;" style="rounded=0;whiteSpace=wrap;html=1;direction=west;fillColor=#f8cecc;strokeColor=#b85450;" vertex="1" parent="1">
          <mxGeometry x="533.25" y="32.5" width="33" height="95" as="geometry" />
        </mxCell>
        <mxCell id="hqVNRMzppCiJ99_KFiAW-104" value="&lt;font style=&quot;font-size: 11px;&quot;&gt;LB&lt;/font&gt;" style="rounded=0;whiteSpace=wrap;html=1;direction=west;fillColor=#f8cecc;strokeColor=#b85450;" vertex="1" parent="1">
          <mxGeometry x="539.25" y="37.5" width="33" height="95" as="geometry" />
        </mxCell>
        <mxCell id="hqVNRMzppCiJ99_KFiAW-134" style="edgeStyle=orthogonalEdgeStyle;rounded=0;orthogonalLoop=1;jettySize=auto;html=1;exitX=0;exitY=0.5;exitDx=0;exitDy=0;entryX=0;entryY=0.5;entryDx=0;entryDy=0;dashed=1;dashPattern=1 1;" edge="1" parent="1" source="hqVNRMzppCiJ99_KFiAW-105" target="hqVNRMzppCiJ99_KFiAW-101">
          <mxGeometry relative="1" as="geometry" />
        </mxCell>
        <mxCell id="hqVNRMzppCiJ99_KFiAW-105" value="&lt;font style=&quot;font-size: 11px;&quot;&gt;LB&lt;/font&gt;" style="rounded=0;whiteSpace=wrap;html=1;direction=west;fillColor=#f8cecc;strokeColor=#b85450;" vertex="1" parent="1">
          <mxGeometry x="545.25" y="42.5" width="33" height="95" as="geometry" />
        </mxCell>
        <mxCell id="hqVNRMzppCiJ99_KFiAW-106" style="edgeStyle=orthogonalEdgeStyle;rounded=0;orthogonalLoop=1;jettySize=auto;html=1;exitX=1;exitY=0.5;exitDx=0;exitDy=0;entryX=0;entryY=0.5;entryDx=0;entryDy=0;entryPerimeter=0;dashed=1;dashPattern=1 1;" edge="1" parent="1" source="hqVNRMzppCiJ99_KFiAW-101" target="hqVNRMzppCiJ99_KFiAW-102">
          <mxGeometry relative="1" as="geometry" />
        </mxCell>
        <mxCell id="hqVNRMzppCiJ99_KFiAW-109" value="Sync Products" style="text;html=1;align=center;verticalAlign=middle;resizable=0;points=[];autosize=1;strokeColor=none;fillColor=none;fontSize=11;rounded=0;" vertex="1" parent="1">
          <mxGeometry x="453" y="-3" width="89" height="25" as="geometry" />
        </mxCell>
        <mxCell id="hqVNRMzppCiJ99_KFiAW-110" value="Cross cutting concerns" style="text;html=1;align=center;verticalAlign=middle;resizable=0;points=[];autosize=1;strokeColor=none;fillColor=none;fontSize=12;rounded=0;" vertex="1" parent="1">
          <mxGeometry x="189.5" y="183.5" width="140" height="26" as="geometry" />
        </mxCell>
        <mxCell id="hqVNRMzppCiJ99_KFiAW-111" value="Authentication&lt;div&gt;&amp;amp;&lt;/div&gt;&lt;div&gt;Authorization&lt;/div&gt;" style="whiteSpace=wrap;html=1;aspect=fixed;rounded=1;shadow=1;fillColor=#FFF0F1;gradientColor=#FF7AAF;gradientDirection=west;" vertex="1" parent="1">
          <mxGeometry x="208.5" y="210.5" width="79.5" height="79.5" as="geometry" />
        </mxCell>
        <mxCell id="hqVNRMzppCiJ99_KFiAW-114" value="Distributed Caching" style="whiteSpace=wrap;html=1;aspect=fixed;rounded=1;shadow=1;fillColor=#EBFCFF;gradientColor=#21FFA6;gradientDirection=west;" vertex="1" parent="1">
          <mxGeometry x="302" y="210.5" width="79" height="79" as="geometry" />
        </mxCell>
        <mxCell id="hqVNRMzppCiJ99_KFiAW-115" value="Logging" style="whiteSpace=wrap;html=1;aspect=fixed;rounded=1;glass=0;shadow=1;fillColor=#FFDED6;gradientColor=#FF9457;gradientDirection=west;" vertex="1" parent="1">
          <mxGeometry x="396" y="210.5" width="78" height="78" as="geometry" />
        </mxCell>
        <mxCell id="hqVNRMzppCiJ99_KFiAW-123" value="" style="rounded=0;whiteSpace=wrap;html=1;direction=north;fillColor=#f8cecc;strokeColor=#b85450;" vertex="1" parent="1">
          <mxGeometry x="849" y="534" width="110" height="26" as="geometry" />
        </mxCell>
        <mxCell id="hqVNRMzppCiJ99_KFiAW-124" value="" style="rounded=0;whiteSpace=wrap;html=1;fillColor=#CAF1DE;strokeColor=#4B5952;fontColor=#ffffff;gradientColor=#64786E;gradientDirection=south;" vertex="1" parent="1">
          <mxGeometry x="858" y="617" width="99" height="57.25" as="geometry" />
        </mxCell>
        <mxCell id="hqVNRMzppCiJ99_KFiAW-138" style="edgeStyle=orthogonalEdgeStyle;rounded=0;orthogonalLoop=1;jettySize=auto;html=1;exitX=1;exitY=0.25;exitDx=0;exitDy=0;entryX=0.011;entryY=0.602;entryDx=0;entryDy=0;entryPerimeter=0;fillColor=#008a00;strokeColor=#005700;" edge="1" parent="1" source="ILpzqOGEgMHz32oO7xNn-24" target="hqVNRMzppCiJ99_KFiAW-19">
          <mxGeometry relative="1" as="geometry" />
        </mxCell>
        <mxCell id="hqVNRMzppCiJ99_KFiAW-143" style="edgeStyle=orthogonalEdgeStyle;rounded=0;orthogonalLoop=1;jettySize=auto;html=1;exitX=1.033;exitY=0.898;exitDx=0;exitDy=0;entryX=0.002;entryY=0.588;entryDx=0;entryDy=0;entryPerimeter=0;exitPerimeter=0;fillColor=#008a00;strokeColor=#005700;" edge="1" parent="1" source="ILpzqOGEgMHz32oO7xNn-24" target="hqVNRMzppCiJ99_KFiAW-59">
          <mxGeometry relative="1" as="geometry">
            <Array as="points">
              <mxPoint x="171" y="552" />
              <mxPoint x="171" y="600" />
              <mxPoint x="503" y="600" />
              <mxPoint x="503" y="546" />
            </Array>
          </mxGeometry>
        </mxCell>
        <mxCell id="hqVNRMzppCiJ99_KFiAW-145" value="" style="rounded=0;whiteSpace=wrap;html=1;direction=north;fillColor=#f8cecc;strokeColor=#b85450;" vertex="1" parent="1">
          <mxGeometry x="844" y="540" width="110" height="26" as="geometry" />
        </mxCell>
        <mxCell id="hqVNRMzppCiJ99_KFiAW-147" value="LB" style="rounded=0;whiteSpace=wrap;html=1;direction=north;fillColor=#f8cecc;strokeColor=#b85450;" vertex="1" parent="1">
          <mxGeometry x="838" y="549" width="110" height="26" as="geometry" />
        </mxCell>
        <mxCell id="hqVNRMzppCiJ99_KFiAW-148" value="" style="rounded=0;whiteSpace=wrap;html=1;fillColor=#CAF1DE;strokeColor=#4B5952;fontColor=#ffffff;gradientColor=#64786E;gradientDirection=south;" vertex="1" parent="1">
          <mxGeometry x="850.5" y="623.75" width="99" height="57.25" as="geometry" />
        </mxCell>
        <mxCell id="hqVNRMzppCiJ99_KFiAW-149" value="Notification&lt;div&gt;Service&lt;/div&gt;" style="rounded=0;whiteSpace=wrap;html=1;fillColor=#CAF1DE;strokeColor=#4B5952;fontColor=#000000;gradientColor=#64786E;gradientDirection=south;" vertex="1" parent="1">
          <mxGeometry x="843" y="631.38" width="99" height="57.25" as="geometry" />
        </mxCell>
        <mxCell id="hqVNRMzppCiJ99_KFiAW-150" style="edgeStyle=orthogonalEdgeStyle;rounded=0;orthogonalLoop=1;jettySize=auto;html=1;exitX=0;exitY=0.5;exitDx=0;exitDy=0;dashed=1;dashPattern=1 1;" edge="1" parent="1" source="hqVNRMzppCiJ99_KFiAW-147" target="hqVNRMzppCiJ99_KFiAW-149">
          <mxGeometry relative="1" as="geometry" />
        </mxCell>
        <mxCell id="hqVNRMzppCiJ99_KFiAW-151" style="edgeStyle=orthogonalEdgeStyle;rounded=0;orthogonalLoop=1;jettySize=auto;html=1;exitX=1;exitY=0.75;exitDx=0;exitDy=0;entryX=0;entryY=0.5;entryDx=0;entryDy=0;fillColor=#e51400;strokeColor=#B20000;" edge="1" parent="1" source="hqVNRMzppCiJ99_KFiAW-97" target="ILpzqOGEgMHz32oO7xNn-94">
          <mxGeometry relative="1" as="geometry">
            <Array as="points">
              <mxPoint x="838" y="113" />
              <mxPoint x="838" y="243" />
              <mxPoint x="938" y="243" />
            </Array>
          </mxGeometry>
        </mxCell>
        <mxCell id="hqVNRMzppCiJ99_KFiAW-152" value="Add Products" style="text;html=1;align=center;verticalAlign=middle;resizable=0;points=[];autosize=1;strokeColor=none;fillColor=none;fontSize=11;rounded=0;rotation=0;" vertex="1" parent="1">
          <mxGeometry x="849" y="241.5" width="84" height="25" as="geometry" />
        </mxCell>
        <mxCell id="hqVNRMzppCiJ99_KFiAW-154" style="edgeStyle=orthogonalEdgeStyle;rounded=0;orthogonalLoop=1;jettySize=auto;html=1;entryX=0.974;entryY=0.857;entryDx=0;entryDy=0;entryPerimeter=0;fillColor=#e51400;strokeColor=#B20000;" edge="1" parent="1" target="ILpzqOGEgMHz32oO7xNn-136">
          <mxGeometry relative="1" as="geometry">
            <mxPoint x="917" y="288" as="sourcePoint" />
            <Array as="points">
              <mxPoint x="917" y="281" />
            </Array>
          </mxGeometry>
        </mxCell>
        <mxCell id="hqVNRMzppCiJ99_KFiAW-155" value="Update&amp;nbsp;&lt;span style=&quot;background-color: initial;&quot;&gt;Stock&lt;/span&gt;" style="text;html=1;align=center;verticalAlign=middle;resizable=0;points=[];autosize=1;strokeColor=none;fillColor=none;fontSize=11;rounded=0;rotation=0;" vertex="1" parent="1">
          <mxGeometry x="837.5" y="279" width="84" height="25" as="geometry" />
        </mxCell>
        <mxCell id="hqVNRMzppCiJ99_KFiAW-157" value="Order Placed" style="text;html=1;align=center;verticalAlign=middle;resizable=0;points=[];autosize=1;strokeColor=none;fillColor=none;fontSize=11;rounded=0;rotation=0;" vertex="1" parent="1">
          <mxGeometry x="831.5" y="330" width="83" height="25" as="geometry" />
        </mxCell>
        <mxCell id="hqVNRMzppCiJ99_KFiAW-160" value="Payment Status" style="text;html=1;align=center;verticalAlign=middle;resizable=0;points=[];autosize=1;strokeColor=none;fillColor=none;fontSize=11;rounded=0;rotation=0;" vertex="1" parent="1">
          <mxGeometry x="827.5" y="395" width="96" height="25" as="geometry" />
        </mxCell>
        <mxCell id="hqVNRMzppCiJ99_KFiAW-162" value="Update Order" style="text;html=1;align=center;verticalAlign=middle;resizable=0;points=[];autosize=1;strokeColor=none;fillColor=none;fontSize=11;rounded=0;rotation=0;" vertex="1" parent="1">
          <mxGeometry x="824.5" y="355" width="85" height="25" as="geometry" />
        </mxCell>
        <mxCell id="hqVNRMzppCiJ99_KFiAW-164" style="edgeStyle=orthogonalEdgeStyle;rounded=0;orthogonalLoop=1;jettySize=auto;html=1;exitX=0.908;exitY=1.027;exitDx=0;exitDy=0;entryX=1;entryY=0.596;entryDx=0;entryDy=0;entryPerimeter=0;exitPerimeter=0;fillColor=#e51400;strokeColor=#B20000;" edge="1" parent="1" source="ILpzqOGEgMHz32oO7xNn-94" target="hqVNRMzppCiJ99_KFiAW-83">
          <mxGeometry relative="1" as="geometry">
            <Array as="points">
              <mxPoint x="870" y="419" />
              <mxPoint x="870" y="472" />
              <mxPoint x="827" y="472" />
              <mxPoint x="827" y="685" />
            </Array>
          </mxGeometry>
        </mxCell>
        <mxCell id="hqVNRMzppCiJ99_KFiAW-165" value="Ship&lt;div&gt;&amp;nbsp;&lt;span style=&quot;background-color: initial;&quot;&gt;Order&lt;/span&gt;&lt;/div&gt;" style="text;html=1;align=center;verticalAlign=middle;resizable=0;points=[];autosize=1;strokeColor=none;fillColor=none;fontSize=11;rounded=0;rotation=0;" vertex="1" parent="1">
          <mxGeometry x="867.5" y="419" width="49" height="38" as="geometry" />
        </mxCell>
        <mxCell id="hqVNRMzppCiJ99_KFiAW-177" value="" style="line;strokeWidth=1;direction=south;html=1;fillColor=#6a00ff;fontColor=#ffffff;strokeColor=#3700CC;" vertex="1" parent="1">
          <mxGeometry x="963" width="10" height="437" as="geometry" />
        </mxCell>
        <mxCell id="hqVNRMzppCiJ99_KFiAW-179" style="edgeStyle=orthogonalEdgeStyle;rounded=0;orthogonalLoop=1;jettySize=auto;html=1;entryX=0.211;entryY=0.467;entryDx=0;entryDy=0;entryPerimeter=0;strokeColor=#3700CC;endArrow=none;endFill=0;fillColor=#6a00ff;" edge="1" parent="1" target="hqVNRMzppCiJ99_KFiAW-177">
          <mxGeometry relative="1" as="geometry">
            <mxPoint x="782" y="24" as="sourcePoint" />
            <Array as="points">
              <mxPoint x="782" y="-3" />
              <mxPoint x="968" y="-3" />
            </Array>
          </mxGeometry>
        </mxCell>
        <mxCell id="hqVNRMzppCiJ99_KFiAW-180" style="edgeStyle=orthogonalEdgeStyle;rounded=0;orthogonalLoop=1;jettySize=auto;html=1;exitX=0.25;exitY=0;exitDx=0;exitDy=0;entryX=0.031;entryY=0.533;entryDx=0;entryDy=0;entryPerimeter=0;endArrow=none;endFill=0;fillColor=#6a00ff;strokeColor=#3700CC;" edge="1" parent="1" source="ILpzqOGEgMHz32oO7xNn-134" target="hqVNRMzppCiJ99_KFiAW-177">
          <mxGeometry relative="1" as="geometry">
            <Array as="points">
              <mxPoint x="270" y="-43" />
              <mxPoint x="968" y="-43" />
            </Array>
          </mxGeometry>
        </mxCell>
        <mxCell id="hqVNRMzppCiJ99_KFiAW-185" style="edgeStyle=orthogonalEdgeStyle;rounded=0;orthogonalLoop=1;jettySize=auto;html=1;exitX=1;exitY=0.25;exitDx=0;exitDy=0;entryX=0.75;entryY=0.5;entryDx=0;entryDy=0;entryPerimeter=0;endArrow=none;endFill=0;fillColor=#6a00ff;strokeColor=#3700CC;" edge="1" parent="1" source="hqVNRMzppCiJ99_KFiAW-19" target="hqVNRMzppCiJ99_KFiAW-177">
          <mxGeometry relative="1" as="geometry">
            <Array as="points">
              <mxPoint x="507" y="365" />
              <mxPoint x="507" y="315" />
              <mxPoint x="828" y="315" />
              <mxPoint x="828" y="234" />
              <mxPoint x="968" y="234" />
            </Array>
          </mxGeometry>
        </mxCell>
        <mxCell id="hqVNRMzppCiJ99_KFiAW-188" style="edgeStyle=orthogonalEdgeStyle;rounded=0;orthogonalLoop=1;jettySize=auto;html=1;exitX=1;exitY=0.25;exitDx=0;exitDy=0;entryX=1;entryY=0.5;entryDx=0;entryDy=0;entryPerimeter=0;endArrow=none;endFill=0;fillColor=#6a00ff;strokeColor=#3700CC;" edge="1" parent="1" source="hqVNRMzppCiJ99_KFiAW-59" target="hqVNRMzppCiJ99_KFiAW-177">
          <mxGeometry relative="1" as="geometry">
            <Array as="points">
              <mxPoint x="808" y="485" />
              <mxPoint x="968" y="485" />
            </Array>
          </mxGeometry>
        </mxCell>
        <mxCell id="hqVNRMzppCiJ99_KFiAW-196" style="edgeStyle=orthogonalEdgeStyle;rounded=0;orthogonalLoop=1;jettySize=auto;html=1;exitX=0.25;exitY=0.5;exitDx=0;exitDy=0;exitPerimeter=0;entryX=0.455;entryY=0.053;entryDx=0;entryDy=0;entryPerimeter=0;fillColor=#6a00ff;strokeColor=#3700CC;" edge="1" parent="1" source="hqVNRMzppCiJ99_KFiAW-177" target="ILpzqOGEgMHz32oO7xNn-214">
          <mxGeometry relative="1" as="geometry" />
        </mxCell>
        <mxCell id="hqVNRMzppCiJ99_KFiAW-198" style="edgeStyle=orthogonalEdgeStyle;rounded=0;orthogonalLoop=1;jettySize=auto;html=1;exitX=1;exitY=0.25;exitDx=0;exitDy=0;entryX=0.48;entryY=0.567;entryDx=0;entryDy=0;entryPerimeter=0;fillColor=#6a00ff;strokeColor=#3700CC;endArrow=none;endFill=0;" edge="1" parent="1" source="ILpzqOGEgMHz32oO7xNn-136" target="hqVNRMzppCiJ99_KFiAW-177">
          <mxGeometry relative="1" as="geometry" />
        </mxCell>
        <mxCell id="hqVNRMzppCiJ99_KFiAW-209" value="Check&amp;nbsp;&lt;span style=&quot;background-color: initial;&quot;&gt;Inventory&lt;/span&gt;" style="text;html=1;align=center;verticalAlign=middle;resizable=0;points=[];autosize=1;strokeColor=none;fillColor=none;fontSize=11;rounded=0;rotation=0;" vertex="1" parent="1">
          <mxGeometry x="573" y="314" width="97" height="25" as="geometry" />
        </mxCell>
        <mxCell id="hqVNRMzppCiJ99_KFiAW-214" value="" style="rounded=0;whiteSpace=wrap;html=1;textShadow=0;strokeColor=#F20037;dashed=1;fillColor=#f5f5f5;" vertex="1" parent="1">
          <mxGeometry x="-249.5" y="-1.5" width="247" height="198.5" as="geometry" />
        </mxCell>
        <mxCell id="hqVNRMzppCiJ99_KFiAW-215" value="&lt;font style=&quot;font-size: 11px;&quot;&gt;Private Network&lt;/font&gt;" style="text;html=1;align=center;verticalAlign=middle;resizable=0;points=[];autosize=1;strokeColor=none;fillColor=none;fontSize=16;rounded=0;" vertex="1" parent="1">
          <mxGeometry x="-244.5" y="-1.5" width="96" height="31" as="geometry" />
        </mxCell>
        <mxCell id="hqVNRMzppCiJ99_KFiAW-217" value="Blob&amp;nbsp;&lt;div&gt;Storage&lt;/div&gt;" style="whiteSpace=wrap;html=1;aspect=fixed;fillColor=#F27C44;fontColor=#ffffff;strokeColor=#6D1F00;" vertex="1" parent="1">
          <mxGeometry x="-191.5" y="40" width="131" height="131" as="geometry" />
        </mxCell>
        <mxCell id="hqVNRMzppCiJ99_KFiAW-218" style="edgeStyle=orthogonalEdgeStyle;rounded=0;orthogonalLoop=1;jettySize=auto;html=1;exitX=0.5;exitY=1;exitDx=0;exitDy=0;entryX=0.5;entryY=0;entryDx=0;entryDy=0;entryPerimeter=0;strokeColor=#000000;" edge="1" parent="1" source="hqVNRMzppCiJ99_KFiAW-217" target="ILpzqOGEgMHz32oO7xNn-2">
          <mxGeometry relative="1" as="geometry" />
        </mxCell>
        <mxCell id="hqVNRMzppCiJ99_KFiAW-212" style="edgeStyle=orthogonalEdgeStyle;rounded=0;orthogonalLoop=1;jettySize=auto;html=1;exitX=0;exitY=0.5;exitDx=0;exitDy=0;entryX=0;entryY=0.5;entryDx=0;entryDy=0;strokeColor=#005700;" edge="1" parent="1" source="ILpzqOGEgMHz32oO7xNn-8" target="ILpzqOGEgMHz32oO7xNn-24">
          <mxGeometry relative="1" as="geometry" />
        </mxCell>
        <mxCell id="hqVNRMzppCiJ99_KFiAW-223" style="edgeStyle=orthogonalEdgeStyle;rounded=0;orthogonalLoop=1;jettySize=auto;html=1;exitX=1;exitY=0.5;exitDx=0;exitDy=0;entryX=1;entryY=0.5;entryDx=0;entryDy=0;strokeColor=#005700;" edge="1" parent="1" source="hqVNRMzppCiJ99_KFiAW-222" target="ILpzqOGEgMHz32oO7xNn-7">
          <mxGeometry relative="1" as="geometry" />
        </mxCell>
        <mxCell id="hqVNRMzppCiJ99_KFiAW-222" value="" style="image;aspect=fixed;perimeter=ellipsePerimeter;html=1;align=center;shadow=0;dashed=0;fontColor=#4277BB;labelBackgroundColor=default;fontSize=12;spacingTop=3;image=img/lib/ibm/users/browser.svg;" vertex="1" parent="1">
          <mxGeometry x="-224" y="415" width="60" height="60" as="geometry" />
        </mxCell>
        <mxCell id="hqVNRMzppCiJ99_KFiAW-225" value="&lt;font style=&quot;font-size: 11px;&quot;&gt;Ecom Website&lt;/font&gt;" style="text;html=1;align=center;verticalAlign=middle;resizable=0;points=[];autosize=1;strokeColor=none;fillColor=none;fontSize=16;rounded=0;" vertex="1" parent="1">
          <mxGeometry x="-237.5" y="472" width="89" height="31" as="geometry" />
        </mxCell>
      </root>
    </mxGraphModel>
  </diagram>
</mxfile>
